<svg width="1200" height="630" xmlns="http://www.w3.org/2000/svg" viewBox="0 0 1200 630">
  <defs>
    <linearGradient id="bg" x1="0" y1="0" x2="1200" y2="630" gradientUnits="userSpaceOnUse">
      <stop offset="0%" stop-color="#061510"/>
      <stop offset="100%" stop-color="#0D2419"/>
    </linearGradient>
    <linearGradient id="fadeMask" x1="700" y1="0" x2="880" y2="0" gradientUnits="userSpaceOnUse">
      <stop offset="0%" stop-color="black"/>
      <stop offset="100%" stop-color="white"/>
    </linearGradient>
    <mask id="gridFade">
      <rect x="700" y="0" width="500" height="630" fill="url(#fadeMask)"/>
    </mask>
  </defs>

  <!-- Background -->
  <rect width="1200" height="630" fill="url(#bg)"/>

  <!-- GRID VISUALIZATION (right side, fades in from left) -->
  <g mask="url(#gridFade)">
    <!-- Row 0 y=43 -->
    <rect x="730" y="43" width="58" height="44" rx="8" fill="#1C3D2C"/>
    <rect x="794" y="43" width="58" height="44" rx="8" fill="#1C3D2C"/>
    <rect x="858" y="43" width="58" height="44" rx="8" fill="#1C3D2C"/>
    <rect x="922" y="43" width="58" height="44" rx="8" fill="#1A5C3A"/>
    <rect x="986" y="43" width="58" height="44" rx="8" fill="#1C3D2C"/>
    <rect x="1050" y="43" width="58" height="44" rx="8" fill="#1C3D2C"/>
    <rect x="1114" y="43" width="58" height="44" rx="8" fill="#1C3D2C"/>
    <!-- Row 1 y=93 -->
    <rect x="730" y="93" width="58" height="44" rx="8" fill="#1C3D2C"/>
    <rect x="794" y="93" width="58" height="44" rx="8" fill="#1A5C3A"/>
    <rect x="858" y="93" width="58" height="44" rx="8" fill="#1A5C3A"/>
    <rect x="922" y="93" width="58" height="44" rx="8" fill="#147A49"/>
    <rect x="986" y="93" width="58" height="44" rx="8" fill="#1A5C3A"/>
    <rect x="1050" y="93" width="58" height="44" rx="8" fill="#1C3D2C"/>
    <rect x="1114" y="93" width="58" height="44" rx="8" fill="#1C3D2C"/>
    <!-- Row 2 y=143 -->
    <rect x="730" y="143" width="58" height="44" rx="8" fill="#1C3D2C"/>
    <rect x="794" y="143" width="58" height="44" rx="8" fill="#147A49"/>
    <rect x="858" y="143" width="58" height="44" rx="8" fill="#009959"/>
    <rect x="922" y="143" width="58" height="44" rx="8" fill="#00B86E"/>
    <rect x="986" y="143" width="58" height="44" rx="8" fill="#147A49"/>
    <rect x="1050" y="143" width="58" height="44" rx="8" fill="#1A5C3A"/>
    <rect x="1114" y="143" width="58" height="44" rx="8" fill="#1C3D2C"/>
    <!-- Row 3 y=193 -->
    <rect x="730" y="193" width="58" height="44" rx="8" fill="#1A5C3A"/>
    <rect x="794" y="193" width="58" height="44" rx="8" fill="#009959"/>
    <rect x="858" y="193" width="58" height="44" rx="8" fill="#00D68F"/>
    <rect x="922" y="193" width="58" height="44" rx="8" fill="#00D68F"/>
    <rect x="986" y="193" width="58" height="44" rx="8" fill="#00B86E"/>
    <rect x="1050" y="193" width="58" height="44" rx="8" fill="#147A49"/>
    <rect x="1114" y="193" width="58" height="44" rx="8" fill="#1C3D2C"/>
    <!-- Row 4 y=243 -->
    <rect x="730" y="243" width="58" height="44" rx="8" fill="#1A5C3A"/>
    <rect x="794" y="243" width="58" height="44" rx="8" fill="#00B86E"/>
    <rect x="858" y="243" width="58" height="44" rx="8" fill="#00D68F"/>
    <rect x="922" y="243" width="58" height="44" rx="8" fill="#00D68F"/>
    <rect x="986" y="243" width="58" height="44" rx="8" fill="#00D68F"/>
    <rect x="1050" y="243" width="58" height="44" rx="8" fill="#009959"/>
    <rect x="1114" y="243" width="58" height="44" rx="8" fill="#1A5C3A"/>
    <!-- Row 5 y=293 -->
    <rect x="730" y="293" width="58" height="44" rx="8" fill="#147A49"/>
    <rect x="794" y="293" width="58" height="44" rx="8" fill="#00B86E"/>
    <rect x="858" y="293" width="58" height="44" rx="8" fill="#00D68F"/>
    <rect x="922" y="293" width="58" height="44" rx="8" fill="#00D68F"/>
    <rect x="986" y="293" width="58" height="44" rx="8" fill="#00B86E"/>
    <rect x="1050" y="293" width="58" height="44" rx="8" fill="#009959"/>
    <rect x="1114" y="293" width="58" height="44" rx="8" fill="#1A5C3A"/>
    <!-- Row 6 y=343 -->
    <rect x="730" y="343" width="58" height="44" rx="8" fill="#1A5C3A"/>
    <rect x="794" y="343" width="58" height="44" rx="8" fill="#009959"/>
    <rect x="858" y="343" width="58" height="44" rx="8" fill="#00B86E"/>
    <rect x="922" y="343" width="58" height="44" rx="8" fill="#00D68F"/>
    <rect x="986" y="343" width="58" height="44" rx="8" fill="#00B86E"/>
    <rect x="1050" y="343" width="58" height="44" rx="8" fill="#147A49"/>
    <rect x="1114" y="343" width="58" height="44" rx="8" fill="#1A5C3A"/>
    <!-- Row 7 y=393 -->
    <rect x="730" y="393" width="58" height="44" rx="8" fill="#1C3D2C"/>
    <rect x="794" y="393" width="58" height="44" rx="8" fill="#147A49"/>
    <rect x="858" y="393" width="58" height="44" rx="8" fill="#009959"/>
    <rect x="922" y="393" width="58" height="44" rx="8" fill="#00B86E"/>
    <rect x="986" y="393" width="58" height="44" rx="8" fill="#009959"/>
    <rect x="1050" y="393" width="58" height="44" rx="8" fill="#1A5C3A"/>
    <rect x="1114" y="393" width="58" height="44" rx="8" fill="#1C3D2C"/>
    <!-- Row 8 y=443 -->
    <rect x="730" y="443" width="58" height="44" rx="8" fill="#1C3D2C"/>
    <rect x="794" y="443" width="58" height="44" rx="8" fill="#1A5C3A"/>
    <rect x="858" y="443" width="58" height="44" rx="8" fill="#147A49"/>
    <rect x="922" y="443" width="58" height="44" rx="8" fill="#147A49"/>
    <rect x="986" y="443" width="58" height="44" rx="8" fill="#1A5C3A"/>
    <rect x="1050" y="443" width="58" height="44" rx="8" fill="#1A5C3A"/>
    <rect x="1114" y="443" width="58" height="44" rx="8" fill="#1C3D2C"/>
    <!-- Row 9 y=493 -->
    <rect x="730" y="493" width="58" height="44" rx="8" fill="#1C3D2C"/>
    <rect x="794" y="493" width="58" height="44" rx="8" fill="#1C3D2C"/>
    <rect x="858" y="493" width="58" height="44" rx="8" fill="#1A5C3A"/>
    <rect x="922" y="493" width="58" height="44" rx="8" fill="#1A5C3A"/>
    <rect x="986" y="493" width="58" height="44" rx="8" fill="#1C3D2C"/>
    <rect x="1050" y="493" width="58" height="44" rx="8" fill="#1C3D2C"/>
    <rect x="1114" y="493" width="58" height="44" rx="8" fill="#1C3D2C"/>
    <!-- Row 10 y=543 -->
    <rect x="730" y="543" width="58" height="44" rx="8" fill="#1C3D2C"/>
    <rect x="794" y="543" width="58" height="44" rx="8" fill="#1C3D2C"/>
    <rect x="858" y="543" width="58" height="44" rx="8" fill="#1C3D2C"/>
    <rect x="922" y="543" width="58" height="44" rx="8" fill="#1A5C3A"/>
    <rect x="986" y="543" width="58" height="44" rx="8" fill="#1C3D2C"/>
    <rect x="1050" y="543" width="58" height="44" rx="8" fill="#1C3D2C"/>
    <rect x="1114" y="543" width="58" height="44" rx="8" fill="#1C3D2C"/>
  </g>

  <!-- LEFT CONTENT -->

  <!-- Accent bar -->
  <rect x="80" y="96" width="52" height="5" rx="2.5" fill="#00D68F"/>

  <!-- Calendar icon (80x80 at 80,108) -->
  <rect x="80" y="108" width="80" height="80" rx="14" fill="#163526"/>
  <rect x="80" y="108" width="80" height="22" rx="14" fill="#00D68F"/>
  <rect x="80" y="120" width="80" height="10" fill="#00D68F"/>
  <rect x="103" y="100" width="10" height="20" rx="5" fill="#00D68F"/>
  <rect x="127" y="100" width="10" height="20" rx="5" fill="#00D68F"/>
  <polyline points="100,163 113,176 143,148" fill="none" stroke="#00D68F" stroke-width="8" stroke-linecap="round" stroke-linejoin="round"/>

  <!-- WhenFree -->
  <text x="178" y="176" font-family="'Segoe UI', -apple-system, BlinkMacSystemFont, 'Helvetica Neue', Arial, sans-serif" font-size="62" font-weight="700" letter-spacing="-1" fill="#D6F0E6">WhenFree</text>

  <!-- Tagline -->
  <text x="80" y="264" font-family="'Segoe UI', -apple-system, BlinkMacSystemFont, 'Helvetica Neue', Arial, sans-serif" font-size="50" font-weight="600" fill="#D6F0E6">Find the time.</text>
  <text x="80" y="326" font-family="'Segoe UI', -apple-system, BlinkMacSystemFont, 'Helvetica Neue', Arial, sans-serif" font-size="50" font-weight="700" fill="#00D68F">Finally.</text>

  <!-- Description -->
  <text x="80" y="388" font-family="'Segoe UI', -apple-system, BlinkMacSystemFont, 'Helvetica Neue', Arial, sans-serif" font-size="22" font-weight="400" fill="#81B09A">Free group scheduling · No account needed</text>

  <!-- Feature pills -->
  <rect x="80" y="418" width="145" height="36" rx="18" fill="#163526" stroke="#00D68F" stroke-width="1" stroke-opacity="0.5"/>
  <text x="152" y="441" font-family="'Segoe UI', -apple-system, BlinkMacSystemFont, 'Helvetica Neue', Arial, sans-serif" font-size="16" font-weight="500" fill="#7FDBBA" text-anchor="middle">No sign-up</text>
  <rect x="237" y="418" width="162" height="36" rx="18" fill="#163526" stroke="#00D68F" stroke-width="1" stroke-opacity="0.5"/>
  <text x="318" y="441" font-family="'Segoe UI', -apple-system, BlinkMacSystemFont, 'Helvetica Neue', Arial, sans-serif" font-size="16" font-weight="500" fill="#7FDBBA" text-anchor="middle">Real-time sync</text>
  <rect x="411" y="418" width="248" height="36" rx="18" fill="#163526" stroke="#00D68F" stroke-width="1" stroke-opacity="0.5"/>
  <text x="535" y="441" font-family="'Segoe UI', -apple-system, BlinkMacSystemFont, 'Helvetica Neue', Arial, sans-serif" font-size="16" font-weight="500" fill="#7FDBBA" text-anchor="middle">When2Meet alternative</text>

  <!-- Domain -->
  <text x="80" y="544" font-family="'Segoe UI', -apple-system, BlinkMacSystemFont, 'Helvetica Neue', Arial, sans-serif" font-size="20" font-weight="400" fill="#3E5750">whenfree.org</text>

  <!-- Bottom bar -->
  <rect x="0" y="612" width="1200" height="18" rx="0" fill="#00D68F" opacity="0.45"/>
  <rect x="360" y="612" width="480" height="18" fill="#00D68F" opacity="0.55"/>
</svg>
